<svg width="854" height="210" viewBox="0 0 854 210" fill="none" xmlns="http://www.w3.org/2000/svg">
  <g clip-path="url(#clip0_15_299)">
    <circle cx="80.7078" cy="49" r="16" fill="#334066"/>
    <circle cx="136.708" cy="105" r="16" fill="#334066"/>
    <circle cx="192.708" cy="49" r="16" fill="#334066"/>
    <g clip-path="url(#clip1_15_299)">
      <circle cx="192.708" cy="105" r="16" fill="#334066"/>
      <circle cx="192.708" cy="105" r="10" fill="white"/>
    </g>
    <circle cx="192.708" cy="161" r="16" fill="#334066"/>
    <path d="M80.7078 58V105H108.708" stroke="#334066" stroke-width="6"/>
    <path d="M108.708 100L115.708 105L108.708 110V100Z" stroke="#334066" stroke-width="6"/>
    <path d="M164.708 100L171.708 105L164.708 110V100Z" stroke="#334066" stroke-width="6"/>
    <path d="M164.708 44L171.708 49L164.708 54V44Z" stroke="#334066" stroke-width="6"/>
    <path d="M136.708 94V49H165.708" stroke="#334066" stroke-width="6"/>
    <path d="M136.708 145C136.708 145 109.208 145 107.708 145C91.2078 145 58.7078 210.364 35.7078 202C12.7078 193.636 2.70781 182.5 8.70782 145C14.7078 107.5 35.7078 30 53.2078 18.5C70.7078 7 84.2078 7 95.2078 7C106.208 7 123.708 25 136.708 25H158.5" stroke="#334066" stroke-width="6" stroke-linecap="round"/>
    <path d="M237.792 202C260.792 193.636 270.792 182.5 264.792 145C258.792 107.5 237.792 30.0001 220.292 18.5001" stroke="#334066" stroke-width="6" stroke-linecap="round"/>
    <path d="M148.708 105H163.208" stroke="#334066" stroke-width="6"/>
  </g>
  <path d="M329.536 53.05C330.176 53.05 330.496 53.37 330.496 54.01V58.138C330.496 58.778 330.176 59.098 329.536 59.098H310.72C310.464 59.098 310.336 59.226 310.336 59.482V119.29C310.336 119.93 310.016 120.25 309.376 120.25H304.48C303.84 120.25 303.52 119.93 303.52 119.29V59.482C303.52 59.226 303.392 59.098 303.136 59.098H285.088C284.448 59.098 284.128 58.778 284.128 58.138V54.01C284.128 53.37 284.448 53.05 285.088 53.05H329.536ZM368.034 87.802C368.29 89.594 368.418 91.834 368.418 94.522V97.594C368.418 98.234 368.098 98.554 367.458 98.554H336.45C336.194 98.554 336.066 98.682 336.066 98.938C336.194 102.458 336.386 104.73 336.642 105.754C337.346 108.634 338.85 110.906 341.154 112.57C343.458 114.234 346.402 115.066 349.986 115.066C352.674 115.066 355.042 114.458 357.09 113.242C359.138 112.026 360.738 110.298 361.89 108.058C362.274 107.482 362.722 107.354 363.234 107.674L366.978 109.882C367.49 110.202 367.618 110.65 367.362 111.226C365.762 114.298 363.362 116.73 360.162 118.522C356.962 120.25 353.282 121.114 349.122 121.114C344.578 121.05 340.77 119.962 337.698 117.85C334.626 115.738 332.418 112.794 331.074 109.018C329.922 105.946 329.346 101.53 329.346 95.77C329.346 93.082 329.378 90.906 329.442 89.242C329.57 87.514 329.826 85.978 330.21 84.634C331.298 80.474 333.474 77.146 336.738 74.65C340.066 72.154 344.066 70.906 348.738 70.906C354.562 70.906 359.042 72.378 362.178 75.322C365.314 78.266 367.266 82.426 368.034 87.802ZM348.738 76.858C345.602 76.858 342.978 77.69 340.866 79.354C338.818 80.954 337.474 83.13 336.834 85.882C336.45 87.226 336.194 89.402 336.066 92.41C336.066 92.666 336.194 92.794 336.45 92.794H361.314C361.57 92.794 361.698 92.666 361.698 92.41C361.57 89.53 361.378 87.482 361.122 86.266C360.418 83.386 358.978 81.114 356.802 79.45C354.69 77.722 352.002 76.858 348.738 76.858ZM378.134 120.25C377.494 120.25 377.174 119.93 377.174 119.29V54.01C377.174 53.37 377.494 53.05 378.134 53.05H383.03C383.67 53.05 383.99 53.37 383.99 54.01V119.29C383.99 119.93 383.67 120.25 383.03 120.25H378.134ZM431.747 87.802C432.003 89.594 432.131 91.834 432.131 94.522V97.594C432.131 98.234 431.811 98.554 431.171 98.554H400.163C399.907 98.554 399.779 98.682 399.779 98.938C399.907 102.458 400.099 104.73 400.355 105.754C401.059 108.634 402.563 110.906 404.867 112.57C407.171 114.234 410.115 115.066 413.699 115.066C416.387 115.066 418.755 114.458 420.803 113.242C422.851 112.026 424.451 110.298 425.603 108.058C425.987 107.482 426.435 107.354 426.947 107.674L430.691 109.882C431.203 110.202 431.331 110.65 431.075 111.226C429.475 114.298 427.075 116.73 423.875 118.522C420.675 120.25 416.995 121.114 412.835 121.114C408.291 121.05 404.483 119.962 401.411 117.85C398.339 115.738 396.131 112.794 394.787 109.018C393.635 105.946 393.059 101.53 393.059 95.77C393.059 93.082 393.091 90.906 393.155 89.242C393.283 87.514 393.539 85.978 393.923 84.634C395.011 80.474 397.187 77.146 400.451 74.65C403.779 72.154 407.779 70.906 412.451 70.906C418.275 70.906 422.755 72.378 425.891 75.322C429.027 78.266 430.979 82.426 431.747 87.802ZM412.451 76.858C409.315 76.858 406.691 77.69 404.579 79.354C402.531 80.954 401.187 83.13 400.547 85.882C400.163 87.226 399.907 89.402 399.779 92.41C399.779 92.666 399.907 92.794 400.163 92.794H425.027C425.283 92.794 425.411 92.666 425.411 92.41C425.283 89.53 425.091 87.482 424.835 86.266C424.131 83.386 422.691 81.114 420.515 79.45C418.403 77.722 415.715 76.858 412.451 76.858ZM459.414 121.018C454.806 121.018 450.838 119.834 447.51 117.466C444.182 115.098 441.878 111.834 440.598 107.674C439.702 104.73 439.254 100.794 439.254 95.866C439.254 90.938 439.702 87.034 440.598 84.154C441.814 80.058 444.086 76.826 447.414 74.458C450.742 72.09 454.774 70.906 459.51 70.906C464.054 70.906 467.958 72.09 471.222 74.458C474.55 76.826 476.822 80.026 478.038 84.058C478.934 86.81 479.382 90.746 479.382 95.866C479.382 101.05 478.934 104.986 478.038 107.674C476.822 111.834 474.55 115.098 471.222 117.466C467.958 119.834 464.022 121.018 459.414 121.018ZM459.414 115.066C462.486 115.066 465.11 114.234 467.286 112.57C469.462 110.842 470.934 108.538 471.702 105.658C472.278 103.354 472.566 100.122 472.566 95.962C472.566 91.738 472.31 88.506 471.798 86.266C471.03 83.386 469.526 81.114 467.286 79.45C465.11 77.722 462.454 76.858 459.318 76.858C456.182 76.858 453.526 77.722 451.35 79.45C449.174 81.114 447.702 83.386 446.934 86.266C446.422 88.506 446.166 91.738 446.166 95.962C446.166 100.186 446.422 103.418 446.934 105.658C447.638 108.538 449.078 110.842 451.254 112.57C453.494 114.234 456.214 115.066 459.414 115.066ZM526.127 83.77C527.087 86.842 527.567 90.906 527.567 95.962C527.567 101.082 527.151 105.05 526.319 107.866C525.167 111.962 523.055 115.194 519.983 117.562C516.975 119.866 513.167 121.018 508.559 121.018C506.063 121.018 503.759 120.538 501.647 119.578C499.535 118.554 497.775 117.114 496.367 115.258C496.239 115.13 496.111 115.098 495.983 115.162C495.919 115.162 495.887 115.226 495.887 115.354V137.914C495.887 138.554 495.567 138.874 494.927 138.874H490.031C489.391 138.874 489.071 138.554 489.071 137.914V72.634C489.071 71.994 489.391 71.674 490.031 71.674H494.927C495.567 71.674 495.887 71.994 495.887 72.634V76.666C495.887 76.794 495.919 76.89 495.983 76.954C496.111 76.954 496.239 76.89 496.367 76.762C497.775 74.906 499.503 73.466 501.551 72.442C503.663 71.418 505.999 70.906 508.559 70.906C513.039 70.906 516.783 72.058 519.791 74.362C522.863 76.666 524.975 79.802 526.127 83.77ZM518.543 108.058C519.247 106.65 519.759 105.082 520.079 103.354C520.463 101.562 520.655 99.098 520.655 95.962C520.655 92.954 520.527 90.618 520.271 88.954C520.015 87.226 519.567 85.69 518.927 84.346C518.159 82.042 516.783 80.218 514.799 78.874C512.879 77.53 510.575 76.858 507.887 76.858C505.327 76.858 503.183 77.53 501.455 78.874C499.727 80.218 498.447 82.01 497.615 84.25C497.039 85.53 496.623 87.034 496.367 88.762C496.111 90.49 495.983 92.89 495.983 95.962C495.983 99.034 496.111 101.466 496.367 103.258C496.623 104.986 497.071 106.522 497.711 107.866C498.479 110.042 499.727 111.802 501.455 113.146C503.247 114.426 505.359 115.066 507.791 115.066C510.351 115.066 512.559 114.426 514.415 113.146C516.335 111.866 517.711 110.17 518.543 108.058ZM595.914 53.722C596.234 53.274 596.618 53.05 597.066 53.05H602.058C602.698 53.05 603.018 53.37 603.018 54.01V119.29C603.018 119.93 602.698 120.25 602.058 120.25H597.162C596.522 120.25 596.202 119.93 596.202 119.29V65.914C596.202 65.722 596.138 65.594 596.01 65.53C595.882 65.466 595.786 65.53 595.722 65.722L580.074 89.722C579.754 90.17 579.37 90.394 578.922 90.394H576.426C575.978 90.394 575.594 90.202 575.274 89.818L559.626 66.01C559.562 65.818 559.466 65.754 559.338 65.818C559.21 65.882 559.146 66.01 559.146 66.202V119.29C559.146 119.93 558.826 120.25 558.186 120.25H553.29C552.65 120.25 552.33 119.93 552.33 119.29V54.01C552.33 53.37 552.65 53.05 553.29 53.05H558.282C558.794 53.05 559.178 53.242 559.434 53.626L577.482 80.986C577.546 81.05 577.642 81.082 577.77 81.082C577.898 81.082 577.994 81.05 578.058 80.986L595.914 53.722ZM633.339 121.018C628.731 121.018 624.763 119.834 621.435 117.466C618.107 115.098 615.803 111.834 614.523 107.674C613.627 104.73 613.179 100.794 613.179 95.866C613.179 90.938 613.627 87.034 614.523 84.154C615.739 80.058 618.011 76.826 621.339 74.458C624.667 72.09 628.699 70.906 633.435 70.906C637.979 70.906 641.883 72.09 645.147 74.458C648.475 76.826 650.747 80.026 651.963 84.058C652.859 86.81 653.307 90.746 653.307 95.866C653.307 101.05 652.859 104.986 651.963 107.674C650.747 111.834 648.475 115.098 645.147 117.466C641.883 119.834 637.947 121.018 633.339 121.018ZM633.339 115.066C636.411 115.066 639.035 114.234 641.211 112.57C643.387 110.842 644.859 108.538 645.627 105.658C646.203 103.354 646.491 100.122 646.491 95.962C646.491 91.738 646.235 88.506 645.723 86.266C644.955 83.386 643.451 81.114 641.211 79.45C639.035 77.722 636.379 76.858 633.243 76.858C630.107 76.858 627.451 77.722 625.275 79.45C623.099 81.114 621.627 83.386 620.859 86.266C620.347 88.506 620.091 91.738 620.091 95.962C620.091 100.186 620.347 103.418 620.859 105.658C621.563 108.538 623.003 110.842 625.179 112.57C627.419 114.234 630.139 115.066 633.339 115.066ZM692.468 54.01C692.468 53.37 692.788 53.05 693.428 53.05H698.324C698.964 53.05 699.284 53.37 699.284 54.01V119.29C699.284 119.93 698.964 120.25 698.324 120.25H693.428C692.788 120.25 692.468 119.93 692.468 119.29V115.258C692.468 115.13 692.404 115.066 692.276 115.066C692.212 115.002 692.116 115.034 691.988 115.162C690.58 117.018 688.82 118.458 686.708 119.482C684.66 120.506 682.356 121.018 679.796 121.018C675.316 121.018 671.54 119.866 668.468 117.562C665.46 115.258 663.38 112.122 662.228 108.154C661.332 105.274 660.884 101.21 660.884 95.962C660.884 90.65 661.268 86.682 662.036 84.058C663.188 79.962 665.3 76.762 668.372 74.458C671.444 72.09 675.252 70.906 679.796 70.906C682.292 70.906 684.596 71.418 686.708 72.442C688.82 73.402 690.58 74.81 691.988 76.666C692.116 76.794 692.212 76.858 692.276 76.858C692.404 76.794 692.468 76.698 692.468 76.57V54.01ZM690.74 107.674C691.316 106.394 691.732 104.89 691.988 103.162C692.244 101.434 692.372 99.034 692.372 95.962C692.372 92.89 692.244 90.49 691.988 88.762C691.732 86.97 691.284 85.402 690.644 84.058C689.876 81.882 688.596 80.154 686.804 78.874C685.076 77.53 682.996 76.858 680.564 76.858C678.004 76.858 675.796 77.498 673.94 78.778C672.084 80.058 670.74 81.754 669.908 83.866C669.14 85.274 668.564 86.874 668.18 88.666C667.86 90.394 667.7 92.826 667.7 95.962C667.7 98.97 667.828 101.338 668.084 103.066C668.34 104.73 668.788 106.234 669.428 107.578C670.196 109.882 671.54 111.706 673.46 113.05C675.444 114.394 677.78 115.066 680.468 115.066C683.028 115.066 685.172 114.394 686.9 113.05C688.628 111.706 689.908 109.914 690.74 107.674ZM739.306 72.634C739.306 71.994 739.626 71.674 740.266 71.674H745.162C745.802 71.674 746.122 71.994 746.122 72.634V119.29C746.122 119.93 745.802 120.25 745.162 120.25H740.266C739.626 120.25 739.306 119.93 739.306 119.29V115.162C739.306 115.034 739.242 114.938 739.114 114.874C738.986 114.81 738.89 114.842 738.826 114.97C736.138 118.938 731.882 120.922 726.058 120.922C722.986 120.922 720.138 120.314 717.514 119.098C714.954 117.818 712.906 115.994 711.37 113.626C709.898 111.258 709.162 108.41 709.162 105.082V72.634C709.162 71.994 709.482 71.674 710.122 71.674H715.018C715.658 71.674 715.978 71.994 715.978 72.634V103.066C715.978 106.714 717.002 109.626 719.05 111.802C721.098 113.914 723.882 114.97 727.402 114.97C731.05 114.97 733.93 113.882 736.042 111.706C738.218 109.53 739.306 106.65 739.306 103.066V72.634ZM757.559 120.25C756.919 120.25 756.599 119.93 756.599 119.29V54.01C756.599 53.37 756.919 53.05 757.559 53.05H762.455C763.095 53.05 763.415 53.37 763.415 54.01V119.29C763.415 119.93 763.095 120.25 762.455 120.25H757.559ZM790.724 70.906C796.484 70.906 800.932 72.378 804.068 75.322C807.204 78.266 808.772 82.17 808.772 87.034V119.29C808.772 119.93 808.452 120.25 807.812 120.25H802.916C802.276 120.25 801.956 119.93 801.956 119.29V115.354C801.956 115.226 801.892 115.13 801.764 115.066C801.7 115.002 801.604 115.034 801.476 115.162C799.876 117.082 797.796 118.554 795.236 119.578C792.676 120.538 789.828 121.018 786.692 121.018C782.148 121.018 778.34 119.866 775.268 117.562C772.196 115.258 770.66 111.738 770.66 107.002C770.66 102.202 772.388 98.426 775.844 95.674C779.364 92.858 784.228 91.45 790.436 91.45H801.572C801.828 91.45 801.956 91.322 801.956 91.066V87.418C801.956 84.154 801.028 81.594 799.172 79.738C797.38 77.818 794.564 76.858 790.724 76.858C787.652 76.858 785.156 77.466 783.236 78.682C781.316 79.834 780.132 81.466 779.684 83.578C779.492 84.218 779.108 84.506 778.532 84.442L773.348 83.77C772.644 83.642 772.356 83.386 772.484 83.002C772.996 79.418 774.916 76.506 778.244 74.266C781.572 72.026 785.732 70.906 790.724 70.906ZM788.036 115.162C791.812 115.162 795.076 114.234 797.828 112.378C800.58 110.458 801.956 107.898 801.956 104.698V97.21C801.956 96.954 801.828 96.826 801.572 96.826H791.492C787.268 96.826 783.876 97.69 781.316 99.418C778.756 101.146 777.476 103.546 777.476 106.618C777.476 109.434 778.436 111.578 780.356 113.05C782.34 114.458 784.9 115.162 788.036 115.162ZM837.739 71.194C839.851 71.194 841.675 71.61 843.211 72.442C843.723 72.698 843.915 73.114 843.787 73.69L842.731 78.394C842.539 79.034 842.123 79.226 841.483 78.97C840.395 78.522 839.147 78.298 837.739 78.298L836.491 78.394C833.163 78.522 830.411 79.77 828.235 82.138C826.059 84.442 824.971 87.386 824.971 90.97V119.29C824.971 119.93 824.651 120.25 824.011 120.25H819.115C818.475 120.25 818.155 119.93 818.155 119.29V72.634C818.155 71.994 818.475 71.674 819.115 71.674H824.011C824.651 71.674 824.971 71.994 824.971 72.634V78.49C824.971 78.682 825.003 78.81 825.067 78.874C825.195 78.874 825.291 78.81 825.355 78.682C826.699 76.314 828.395 74.49 830.443 73.21C832.555 71.866 834.987 71.194 837.739 71.194Z" fill="#334066"/>
  <defs>
    <clipPath id="clip0_15_299">
      <rect width="266" height="202" fill="white" transform="translate(4 4)"/>
    </clipPath>
    <clipPath id="clip1_15_299">
      <rect width="32" height="32" fill="white" transform="translate(176.708 89)"/>
    </clipPath>
  </defs>
</svg>
