<svg width="904" height="210" viewBox="0 0 904 210" fill="none" xmlns="http://www.w3.org/2000/svg">
  <path d="M114.849 53.05C115.489 53.05 115.809 53.37 115.809 54.01V58.138C115.809 58.778 115.489 59.098 114.849 59.098H96.0325C95.7765 59.098 95.6485 59.226 95.6485 59.482V119.29C95.6485 119.93 95.3285 120.25 94.6885 120.25H89.7925C89.1525 120.25 88.8325 119.93 88.8325 119.29V59.482C88.8325 59.226 88.7045 59.098 88.4485 59.098H70.4005C69.7605 59.098 69.4405 58.778 69.4405 58.138V54.01C69.4405 53.37 69.7605 53.05 70.4005 53.05H114.849ZM153.347 87.802C153.603 89.594 153.731 91.834 153.731 94.522V97.594C153.731 98.234 153.411 98.554 152.771 98.554H121.763C121.507 98.554 121.379 98.682 121.379 98.938C121.507 102.458 121.699 104.73 121.955 105.754C122.659 108.634 124.163 110.906 126.467 112.57C128.771 114.234 131.715 115.066 135.299 115.066C137.987 115.066 140.355 114.458 142.403 113.242C144.451 112.026 146.051 110.298 147.203 108.058C147.587 107.482 148.035 107.354 148.547 107.674L152.291 109.882C152.803 110.202 152.931 110.65 152.675 111.226C151.075 114.298 148.675 116.73 145.475 118.522C142.275 120.25 138.595 121.114 134.435 121.114C129.891 121.05 126.083 119.962 123.011 117.85C119.939 115.738 117.731 112.794 116.387 109.018C115.235 105.946 114.659 101.53 114.659 95.77C114.659 93.082 114.691 90.906 114.755 89.242C114.883 87.514 115.139 85.978 115.523 84.634C116.611 80.474 118.787 77.146 122.051 74.65C125.379 72.154 129.379 70.906 134.051 70.906C139.875 70.906 144.355 72.378 147.491 75.322C150.627 78.266 152.579 82.426 153.347 87.802ZM134.051 76.858C130.915 76.858 128.291 77.69 126.179 79.354C124.131 80.954 122.787 83.13 122.147 85.882C121.763 87.226 121.507 89.402 121.379 92.41C121.379 92.666 121.507 92.794 121.763 92.794H146.627C146.883 92.794 147.011 92.666 147.011 92.41C146.883 89.53 146.691 87.482 146.435 86.266C145.731 83.386 144.291 81.114 142.115 79.45C140.003 77.722 137.315 76.858 134.051 76.858ZM163.446 120.25C162.806 120.25 162.486 119.93 162.486 119.29V54.01C162.486 53.37 162.806 53.05 163.446 53.05H168.342C168.982 53.05 169.302 53.37 169.302 54.01V119.29C169.302 119.93 168.982 120.25 168.342 120.25H163.446ZM217.059 87.802C217.315 89.594 217.443 91.834 217.443 94.522V97.594C217.443 98.234 217.123 98.554 216.483 98.554H185.475C185.219 98.554 185.091 98.682 185.091 98.938C185.219 102.458 185.411 104.73 185.667 105.754C186.371 108.634 187.875 110.906 190.179 112.57C192.483 114.234 195.427 115.066 199.011 115.066C201.699 115.066 204.067 114.458 206.115 113.242C208.163 112.026 209.763 110.298 210.915 108.058C211.299 107.482 211.747 107.354 212.259 107.674L216.003 109.882C216.515 110.202 216.643 110.65 216.387 111.226C214.787 114.298 212.387 116.73 209.187 118.522C205.987 120.25 202.307 121.114 198.147 121.114C193.603 121.05 189.795 119.962 186.723 117.85C183.651 115.738 181.443 112.794 180.099 109.018C178.947 105.946 178.371 101.53 178.371 95.77C178.371 93.082 178.403 90.906 178.467 89.242C178.595 87.514 178.851 85.978 179.235 84.634C180.323 80.474 182.499 77.146 185.763 74.65C189.091 72.154 193.091 70.906 197.763 70.906C203.587 70.906 208.067 72.378 211.203 75.322C214.339 78.266 216.291 82.426 217.059 87.802ZM197.763 76.858C194.627 76.858 192.003 77.69 189.891 79.354C187.843 80.954 186.499 83.13 185.859 85.882C185.475 87.226 185.219 89.402 185.091 92.41C185.091 92.666 185.219 92.794 185.475 92.794H210.339C210.595 92.794 210.723 92.666 210.723 92.41C210.595 89.53 210.403 87.482 210.147 86.266C209.443 83.386 208.003 81.114 205.827 79.45C203.715 77.722 201.027 76.858 197.763 76.858ZM244.727 121.018C240.119 121.018 236.151 119.834 232.823 117.466C229.495 115.098 227.191 111.834 225.911 107.674C225.015 104.73 224.567 100.794 224.567 95.866C224.567 90.938 225.015 87.034 225.911 84.154C227.127 80.058 229.399 76.826 232.727 74.458C236.055 72.09 240.087 70.906 244.823 70.906C249.367 70.906 253.271 72.09 256.535 74.458C259.863 76.826 262.135 80.026 263.351 84.058C264.247 86.81 264.695 90.746 264.695 95.866C264.695 101.05 264.247 104.986 263.351 107.674C262.135 111.834 259.863 115.098 256.535 117.466C253.271 119.834 249.335 121.018 244.727 121.018ZM244.727 115.066C247.799 115.066 250.423 114.234 252.599 112.57C254.775 110.842 256.247 108.538 257.015 105.658C257.591 103.354 257.879 100.122 257.879 95.962C257.879 91.738 257.623 88.506 257.111 86.266C256.343 83.386 254.839 81.114 252.599 79.45C250.423 77.722 247.767 76.858 244.631 76.858C241.495 76.858 238.839 77.722 236.663 79.45C234.487 81.114 233.015 83.386 232.247 86.266C231.735 88.506 231.479 91.738 231.479 95.962C231.479 100.186 231.735 103.418 232.247 105.658C232.951 108.538 234.391 110.842 236.567 112.57C238.807 114.234 241.527 115.066 244.727 115.066ZM311.439 83.77C312.399 86.842 312.879 90.906 312.879 95.962C312.879 101.082 312.463 105.05 311.631 107.866C310.479 111.962 308.367 115.194 305.295 117.562C302.287 119.866 298.479 121.018 293.871 121.018C291.375 121.018 289.071 120.538 286.959 119.578C284.847 118.554 283.087 117.114 281.679 115.258C281.551 115.13 281.423 115.098 281.295 115.162C281.231 115.162 281.199 115.226 281.199 115.354V137.914C281.199 138.554 280.879 138.874 280.239 138.874H275.343C274.703 138.874 274.383 138.554 274.383 137.914V72.634C274.383 71.994 274.703 71.674 275.343 71.674H280.239C280.879 71.674 281.199 71.994 281.199 72.634V76.666C281.199 76.794 281.231 76.89 281.295 76.954C281.423 76.954 281.551 76.89 281.679 76.762C283.087 74.906 284.815 73.466 286.863 72.442C288.975 71.418 291.311 70.906 293.871 70.906C298.351 70.906 302.095 72.058 305.103 74.362C308.175 76.666 310.287 79.802 311.439 83.77ZM303.855 108.058C304.559 106.65 305.071 105.082 305.391 103.354C305.775 101.562 305.967 99.098 305.967 95.962C305.967 92.954 305.839 90.618 305.583 88.954C305.327 87.226 304.879 85.69 304.239 84.346C303.471 82.042 302.095 80.218 300.111 78.874C298.191 77.53 295.887 76.858 293.199 76.858C290.639 76.858 288.495 77.53 286.767 78.874C285.039 80.218 283.759 82.01 282.927 84.25C282.351 85.53 281.935 87.034 281.679 88.762C281.423 90.49 281.295 92.89 281.295 95.962C281.295 99.034 281.423 101.466 281.679 103.258C281.935 104.986 282.383 106.522 283.023 107.866C283.791 110.042 285.039 111.802 286.767 113.146C288.559 114.426 290.671 115.066 293.103 115.066C295.663 115.066 297.871 114.426 299.727 113.146C301.647 111.866 303.023 110.17 303.855 108.058Z" fill="#334066"/>
  <g clip-path="url(#clip0_15_221)">
    <circle cx="399.708" cy="49" r="16" fill="#334066"/>
    <circle cx="455.708" cy="105" r="16" fill="#334066"/>
    <circle cx="511.708" cy="49" r="16" fill="#334066"/>
    <g clip-path="url(#clip1_15_221)">
      <circle cx="511.708" cy="105" r="16" fill="#334066"/>
      <circle cx="511.708" cy="105" r="10" fill="white"/>
    </g>
    <circle cx="511.708" cy="161" r="16" fill="#334066"/>
    <path d="M399.708 58V105H427.708" stroke="#334066" stroke-width="6"/>
    <path d="M427.708 100L434.708 105L427.708 110V100Z" stroke="#334066" stroke-width="6"/>
    <path d="M483.708 100L490.708 105L483.708 110V100Z" stroke="#334066" stroke-width="6"/>
    <path d="M483.708 44L490.708 49L483.708 54V44Z" stroke="#334066" stroke-width="6"/>
    <path d="M455.708 94V49H484.708" stroke="#334066" stroke-width="6"/>
    <path d="M455.708 145C455.708 145 428.208 145 426.708 145C410.208 145 377.708 210.364 354.708 202C331.708 193.636 321.708 182.5 327.708 145C333.708 107.5 354.708 30 372.208 18.5C389.708 7 403.208 7 414.208 7C425.208 7 442.708 25 455.708 25H477.5" stroke="#334066" stroke-width="6" stroke-linecap="round"/>
    <path d="M556.792 202C579.792 193.636 589.792 182.5 583.792 145C577.792 107.5 556.792 30.0001 539.292 18.5001" stroke="#334066" stroke-width="6" stroke-linecap="round"/>
    <path d="M467.708 105H482.208" stroke="#334066" stroke-width="6"/>
  </g>
  <path d="M645.608 53.722C645.928 53.274 646.312 53.05 646.76 53.05H651.752C652.392 53.05 652.712 53.37 652.712 54.01V119.29C652.712 119.93 652.392 120.25 651.752 120.25H646.856C646.216 120.25 645.896 119.93 645.896 119.29V65.914C645.896 65.722 645.832 65.594 645.704 65.53C645.576 65.466 645.48 65.53 645.416 65.722L629.768 89.722C629.448 90.17 629.064 90.394 628.616 90.394H626.12C625.672 90.394 625.288 90.202 624.968 89.818L609.32 66.01C609.256 65.818 609.16 65.754 609.032 65.818C608.904 65.882 608.84 66.01 608.84 66.202V119.29C608.84 119.93 608.52 120.25 607.88 120.25H602.984C602.344 120.25 602.024 119.93 602.024 119.29V54.01C602.024 53.37 602.344 53.05 602.984 53.05H607.976C608.488 53.05 608.872 53.242 609.128 53.626L627.176 80.986C627.24 81.05 627.336 81.082 627.464 81.082C627.592 81.082 627.688 81.05 627.752 80.986L645.608 53.722ZM683.033 121.018C678.425 121.018 674.457 119.834 671.129 117.466C667.801 115.098 665.497 111.834 664.217 107.674C663.321 104.73 662.873 100.794 662.873 95.866C662.873 90.938 663.321 87.034 664.217 84.154C665.433 80.058 667.705 76.826 671.033 74.458C674.361 72.09 678.393 70.906 683.129 70.906C687.673 70.906 691.577 72.09 694.841 74.458C698.169 76.826 700.441 80.026 701.657 84.058C702.553 86.81 703.001 90.746 703.001 95.866C703.001 101.05 702.553 104.986 701.657 107.674C700.441 111.834 698.169 115.098 694.841 117.466C691.577 119.834 687.641 121.018 683.033 121.018ZM683.033 115.066C686.105 115.066 688.729 114.234 690.905 112.57C693.081 110.842 694.553 108.538 695.321 105.658C695.897 103.354 696.185 100.122 696.185 95.962C696.185 91.738 695.929 88.506 695.417 86.266C694.649 83.386 693.145 81.114 690.905 79.45C688.729 77.722 686.073 76.858 682.937 76.858C679.801 76.858 677.145 77.722 674.969 79.45C672.793 81.114 671.321 83.386 670.553 86.266C670.041 88.506 669.785 91.738 669.785 95.962C669.785 100.186 670.041 103.418 670.553 105.658C671.257 108.538 672.697 110.842 674.873 112.57C677.113 114.234 679.833 115.066 683.033 115.066ZM742.162 54.01C742.162 53.37 742.482 53.05 743.122 53.05H748.018C748.658 53.05 748.978 53.37 748.978 54.01V119.29C748.978 119.93 748.658 120.25 748.018 120.25H743.122C742.482 120.25 742.162 119.93 742.162 119.29V115.258C742.162 115.13 742.098 115.066 741.97 115.066C741.906 115.002 741.81 115.034 741.682 115.162C740.274 117.018 738.514 118.458 736.402 119.482C734.354 120.506 732.05 121.018 729.49 121.018C725.01 121.018 721.234 119.866 718.162 117.562C715.154 115.258 713.074 112.122 711.922 108.154C711.026 105.274 710.578 101.21 710.578 95.962C710.578 90.65 710.962 86.682 711.73 84.058C712.882 79.962 714.994 76.762 718.066 74.458C721.138 72.09 724.946 70.906 729.49 70.906C731.986 70.906 734.29 71.418 736.402 72.442C738.514 73.402 740.274 74.81 741.682 76.666C741.81 76.794 741.906 76.858 741.97 76.858C742.098 76.794 742.162 76.698 742.162 76.57V54.01ZM740.434 107.674C741.01 106.394 741.426 104.89 741.682 103.162C741.938 101.434 742.066 99.034 742.066 95.962C742.066 92.89 741.938 90.49 741.682 88.762C741.426 86.97 740.978 85.402 740.338 84.058C739.57 81.882 738.29 80.154 736.498 78.874C734.77 77.53 732.69 76.858 730.258 76.858C727.698 76.858 725.49 77.498 723.634 78.778C721.778 80.058 720.434 81.754 719.602 83.866C718.834 85.274 718.258 86.874 717.874 88.666C717.554 90.394 717.394 92.826 717.394 95.962C717.394 98.97 717.522 101.338 717.778 103.066C718.034 104.73 718.482 106.234 719.122 107.578C719.89 109.882 721.234 111.706 723.154 113.05C725.138 114.394 727.474 115.066 730.162 115.066C732.722 115.066 734.866 114.394 736.594 113.05C738.322 111.706 739.602 109.914 740.434 107.674ZM789 72.634C789 71.994 789.32 71.674 789.96 71.674H794.856C795.496 71.674 795.816 71.994 795.816 72.634V119.29C795.816 119.93 795.496 120.25 794.856 120.25H789.96C789.32 120.25 789 119.93 789 119.29V115.162C789 115.034 788.936 114.938 788.808 114.874C788.68 114.81 788.584 114.842 788.52 114.97C785.832 118.938 781.576 120.922 775.752 120.922C772.68 120.922 769.832 120.314 767.208 119.098C764.648 117.818 762.6 115.994 761.064 113.626C759.592 111.258 758.856 108.41 758.856 105.082V72.634C758.856 71.994 759.176 71.674 759.816 71.674H764.712C765.352 71.674 765.672 71.994 765.672 72.634V103.066C765.672 106.714 766.696 109.626 768.744 111.802C770.792 113.914 773.576 114.97 777.096 114.97C780.744 114.97 783.624 113.882 785.736 111.706C787.912 109.53 789 106.65 789 103.066V72.634ZM807.253 120.25C806.613 120.25 806.293 119.93 806.293 119.29V54.01C806.293 53.37 806.613 53.05 807.253 53.05H812.149C812.789 53.05 813.109 53.37 813.109 54.01V119.29C813.109 119.93 812.789 120.25 812.149 120.25H807.253ZM840.418 70.906C846.178 70.906 850.626 72.378 853.762 75.322C856.898 78.266 858.466 82.17 858.466 87.034V119.29C858.466 119.93 858.146 120.25 857.506 120.25H852.61C851.97 120.25 851.65 119.93 851.65 119.29V115.354C851.65 115.226 851.586 115.13 851.458 115.066C851.394 115.002 851.298 115.034 851.17 115.162C849.57 117.082 847.49 118.554 844.93 119.578C842.37 120.538 839.522 121.018 836.386 121.018C831.842 121.018 828.034 119.866 824.962 117.562C821.89 115.258 820.354 111.738 820.354 107.002C820.354 102.202 822.082 98.426 825.538 95.674C829.058 92.858 833.922 91.45 840.13 91.45H851.266C851.522 91.45 851.65 91.322 851.65 91.066V87.418C851.65 84.154 850.722 81.594 848.866 79.738C847.074 77.818 844.258 76.858 840.418 76.858C837.346 76.858 834.85 77.466 832.93 78.682C831.01 79.834 829.826 81.466 829.378 83.578C829.186 84.218 828.802 84.506 828.226 84.442L823.042 83.77C822.338 83.642 822.05 83.386 822.178 83.002C822.69 79.418 824.61 76.506 827.938 74.266C831.266 72.026 835.426 70.906 840.418 70.906ZM837.73 115.162C841.506 115.162 844.77 114.234 847.522 112.378C850.274 110.458 851.65 107.898 851.65 104.698V97.21C851.65 96.954 851.522 96.826 851.266 96.826H841.186C836.962 96.826 833.57 97.69 831.01 99.418C828.45 101.146 827.17 103.546 827.17 106.618C827.17 109.434 828.13 111.578 830.049 113.05C832.034 114.458 834.594 115.162 837.73 115.162ZM887.433 71.194C889.545 71.194 891.369 71.61 892.905 72.442C893.417 72.698 893.609 73.114 893.481 73.69L892.425 78.394C892.233 79.034 891.817 79.226 891.177 78.97C890.089 78.522 888.841 78.298 887.433 78.298L886.185 78.394C882.857 78.522 880.105 79.77 877.929 82.138C875.753 84.442 874.665 87.386 874.665 90.97V119.29C874.665 119.93 874.345 120.25 873.705 120.25H868.809C868.169 120.25 867.849 119.93 867.849 119.29V72.634C867.849 71.994 868.169 71.674 868.809 71.674H873.705C874.345 71.674 874.665 71.994 874.665 72.634V78.49C874.665 78.682 874.697 78.81 874.761 78.874C874.889 78.874 874.985 78.81 875.049 78.682C876.393 76.314 878.089 74.49 880.137 73.21C882.249 71.866 884.681 71.194 887.433 71.194Z" fill="#334066"/>
  <defs>
    <clipPath id="clip0_15_221">
      <rect width="266" height="202" fill="white" transform="translate(323 4)"/>
    </clipPath>
    <clipPath id="clip1_15_221">
      <rect width="32" height="32" fill="white" transform="translate(495.708 89)"/>
    </clipPath>
  </defs>
</svg>
